# xmcd
#
# Track frame offsets:
#	150
#	21623
#	46673
#	58746
#	76564
#	91382
#	115687
#	126663
#	147079
#	158374
#	179279
#	193789
#	214384
#	226325
#
# Disc length: 3240 seconds
#
# Revision: 0
# Processed by: cddbd v1.4PL0 Copyright (c) Steve Scherf et al.
# Submitted via: EasyCDDAExtractor 4.6.9.1
#
DISCID=ba0ca60e
DTITLE=Wim Pols and The Country Trail Band - Tel uw Zegeningen "www.countrytrail
DTITLE=band.org"
DYEAR=1900
DGENRE=Country
TTITLE0=Immer dichter aan Uw zij
TTITLE1=Hoe groot zij Gij
TTITLE2=Tel uw zegeningen
TTITLE3=Daar zijn geen grenzen aan Jezus' macht
TTITLE4=Volle verzeek'ring
TTITLE5=In de hof
TTITLE6=Daar is kracht in het bloed
TTITLE7=Zachtkens en teder roept Jezus de zijnen
TTITLE8=Er komen stromen van zegen
TTITLE9=Het ruwhouten kruis
TTITLE10=Ga mij niet voorbij, o Heiland
TTITLE11=Welk een vriend is onze Jezus
TTITLE12=Staande op de beloften
TTITLE13=Groot is Uw trouw, o Heer
EXTD=
EXTT0=
EXTT1=
EXTT2=
EXTT3=
EXTT4=
EXTT5=
EXTT6=
EXTT7=
EXTT8=
EXTT9=
EXTT10=
EXTT11=
EXTT12=
EXTT13=
PLAYORDER=
